<?xml version="1.0" encoding="UTF-8" standalone="no"?>
<!--Created with Inkscape (http://www.inkscape.org/)-->
<svg width="86.105118mm" height="43.681808mm" viewBox="0 0 86.105118 43.681808" version="1.1" id="svg5" inkscape:version="1.1.2 (0a00cf5339, 2022-02-04, custom)" sodipodi:docname="silksong_logo_white.svg" xmlns:inkscape="http://www.inkscape.org/namespaces/inkscape" xmlns:sodipodi="http://sodipodi.sourceforge.net/DTD/sodipodi-0.dtd" xmlns="http://www.w3.org/2000/svg" xmlns:svg="http://www.w3.org/2000/svg">
  <sodipodi:namedview id="namedview7" pagecolor="#505050" bordercolor="#ffffff" borderopacity="1" inkscape:pageshadow="0" inkscape:pageopacity="0" inkscape:pagecheckerboard="1" inkscape:document-units="mm" showgrid="false" inkscape:zoom="2.1190784" inkscape:cx="163.04258" inkscape:cy="96.268265" inkscape:window-width="1517" inkscape:window-height="953" inkscape:window-x="-1600" inkscape:window-y="15" inkscape:window-maximized="0" inkscape:current-layer="svg5" fit-margin-top="0" fit-margin-left="0" fit-margin-right="0" fit-margin-bottom="0"/>
  <defs id="defs2"/>
  <path style="fill:#D98B2B;stroke-width:0.0846667" d="m 31.114089,43.614047 c -0.0931,-0.0385 -0.26458,-0.17262 -0.381,-0.29799 -0.17586,-0.18939 -0.2112,-0.31045 -0.20892,-0.71567 0.002,-0.317 0.0543,-0.56645 0.15012,-0.71264 0.0811,-0.12371 0.13175,-0.22493 0.11266,-0.22493 -0.0191,0 -0.5514,0.13243 -1.1829,0.29428 -2.28965,0.58683 -4.62706,0.87551 -5.784908,0.71447 -0.732824,-0.10193 -0.960049,-0.19159 -0.960049,-0.37882 0,-0.15547 0.331213,-0.28847 0.746346,-0.2997 0.280427,-0.008 0.290576,-0.0153 0.100321,-0.0762 -0.116417,-0.0373 -0.347287,-0.0716 -0.513047,-0.0762 -1.011344,-0.0283 -2.912538,-0.79573 -3.70319,-1.49477 -0.524386,-0.46362 -0.946507,-1.14984 -0.947635,-1.54051 -0.0011,-0.38946 0.15106,-0.35607 0.868464,0.1905 0.623862,0.47531 0.792815,0.55763 0.711948,0.3469 -0.02507,-0.0653 0.0043,-0.18703 0.06534,-0.27045 0.10371,-0.14184 0.159681,-0.12375 0.862017,0.27849 1.063022,0.60881 2.70446,1.29606 3.095523,1.29606 0.0385,0 -0.17795,-0.24314 -0.48103,-0.54031 -0.444974,-0.4363 -0.551054,-0.59114 -0.551054,-0.80433 0,-0.32122 0.112762,-0.33329 0.521164,-0.0558 0.61369,0.41701 1.21669,0.74233 1.90113,1.02566 0.67103,0.27777 1.72505,0.57363 1.79487,0.50381 0.0184,-0.0184 -0.0276,-0.12058 -0.1022,-0.22709 -0.1916,-0.27354 -0.16855,-0.51886 0.0698,-0.74275 0.22179,-0.20836 0.38726,-0.17535 0.38726,0.0773 0,0.27243 0.46735,0.6522 0.94305,0.76632 0.88568,0.21247 2.8941,-0.0262 4.37679,-0.52019 l 0.79158,-0.26372 -0.29232,-0.24095 c -0.35559,-0.29311 -0.55727,-0.71764 -0.4106,-0.86431 0.0755,-0.0755 0.25406,-0.0451 0.75306,0.12798 1.02112,0.35424 1.23694,0.3916 2.77078,0.47961 1.3687,0.0785 1.68877,0.13911 2.52868,0.47858 0.13881,0.0561 0.14653,0.0424 0.0635,-0.11274 -0.16302,-0.3046 -0.10959,-0.60902 0.15297,-0.87158 0.5875,-0.5875 1.59719,-0.10281 1.23697,0.59378 -0.1192,0.23052 -0.42081,0.38351 -0.57193,0.29011 -0.0407,-0.0252 -0.0281,-0.10116 0.028,-0.16884 0.1385,-0.16688 -0.0203,-0.31998 -0.25471,-0.24558 -0.30247,0.096 -0.20612,0.39271 0.32786,1.00964 0.27782,0.32097 0.54871,0.71562 0.60197,0.87699 0.20222,0.61275 -0.12382,1.26145 -0.73547,1.46331 -0.22029,0.0727 -0.32987,0.0642 -0.53386,-0.0413 -0.31418,-0.16247 -0.43102,-0.36696 -0.43102,-0.75437 0,-0.31381 0.14291,-0.51528 0.43021,-0.60646 0.23563,-0.0748 0.28152,-0.009 0.14715,0.21076 -0.0973,0.15919 -0.0906,0.19841 0.0524,0.30436 0.26465,0.1962 0.51646,-0.0243 0.50187,-0.43944 -0.024,-0.68332 -1.08997,-1.28439 -2.41988,-1.36452 -1.13874,-0.0686 -2.30186,0.23721 -3.16766,0.83289 -0.46749,0.32164 -0.62404,0.31975 -0.62404,-0.008 0,-0.1397 -0.0124,-0.254 -0.0275,-0.254 -0.0151,0 -0.29135,0.0898 -0.61383,0.19946 -0.59197,0.20139 -1.32291,0.55239 -1.56388,0.751 -0.37843,0.31189 -0.53756,0.84489 -0.31785,1.0646 0.18526,0.18526 0.56978,0.12264 0.67581,-0.11006 0.11103,-0.24371 0.19857,-0.26874 0.27187,-0.0778 0.15469,0.40313 -0.0896,0.90312 -0.55907,1.14414 -0.34134,0.17524 -0.44428,0.18705 -0.70188,0.0805 z m 23.114,-0.036 c -0.4971,-0.22319 -0.77906,-0.73259 -0.62659,-1.13201 l 0.0889,-0.23283 0.17009,0.23283 c 0.289,0.39563 0.7804,0.27462 0.76722,-0.18894 -0.0104,-0.36439 -0.20953,-0.64263 -0.66822,-0.93352 -0.32983,-0.20917 -1.69114,-0.76137 -1.87697,-0.76137 -0.0343,0 -0.0609,0.10372 -0.0591,0.2305 0.005,0.32665 -0.2119,0.3373 -0.63447,0.0312 -0.19462,-0.14099 -0.66413,-0.38082 -1.04335,-0.53296 -0.65425,-0.26247 -0.74578,-0.27668 -1.79017,-0.27785 -1.05656,-0.001 -1.12273,0.009 -1.651,0.2607 -0.74377,0.35399 -1.10067,0.72814 -1.10067,1.15387 0,0.25995 0.0383,0.33956 0.1905,0.39614 0.30866,0.11473 0.42626,0.0203 0.3742,-0.30047 -0.057,-0.35124 0.10732,-0.38148 0.41282,-0.076 0.28549,0.28549 0.27248,0.64846 -0.0356,0.99326 -0.19122,0.21401 -0.307,0.27061 -0.54008,0.264 -0.5712,-0.0162 -0.99452,-0.47941 -0.99452,-1.08825 0,-0.42136 0.17077,-0.74831 0.71945,-1.37743 0.49244,-0.56464 0.54299,-0.69268 0.33997,-0.86117 -0.19943,-0.16551 -0.39569,-0.0423 -0.33265,0.20891 0.0716,0.28527 -0.15178,0.2882 -0.43428,0.006 -0.63442,-0.63442 0.43924,-1.37499 1.1024,-0.7604 0.2077,0.19249 0.22987,0.26302 0.1954,0.62175 l -0.0389,0.40463 0.59072,-0.20543 c 0.47711,-0.16592 0.86936,-0.22102 2.03947,-0.28647 1.41627,-0.0792 2.33624,-0.25214 2.94737,-0.554 0.38712,-0.19122 0.5757,-0.14855 0.5757,0.13028 0,0.17868 -0.0981,0.33363 -0.36961,0.58392 l -0.36962,0.3407 0.96658,0.30984 c 1.52811,0.48986 3.6271,0.69712 4.37142,0.43166 0.41121,-0.14665 0.64273,-0.3539 0.79352,-0.71033 0.11308,-0.2673 0.1297,-0.27589 0.30581,-0.15806 0.1404,0.0939 0.18491,0.20518 0.18085,0.45199 -0.003,0.18007 -0.0346,0.39141 -0.0703,0.46964 -0.06,0.13151 -0.0269,0.13339 0.43794,0.0249 1.00436,-0.2343 2.13219,-0.73096 3.01112,-1.32599 0.49758,-0.33686 0.73295,-0.36809 0.73295,-0.0972 0,0.21385 -0.38037,0.7275 -0.77144,1.04178 -0.18725,0.15048 -0.3217,0.29234 -0.29879,0.31526 0.14076,0.14076 2.21434,-0.72877 3.27628,-1.37387 0.55361,-0.33629 0.75728,-0.33495 0.75728,0.005 v 0.21911 l 0.25958,-0.15295 c 0.14277,-0.0841 0.43463,-0.29745 0.64857,-0.47405 0.64818,-0.53505 0.89363,-0.26602 0.48786,0.53472 -0.60572,1.19532 -2.39913,2.20257 -4.35931,2.44836 -0.77365,0.097 -0.97607,0.17435 -0.45632,0.17435 0.32452,0 0.71029,0.18492 0.71029,0.34049 0,0.137 -0.28739,0.23603 -0.95411,0.32876 -1.35834,0.18893 -4.09084,-0.20124 -6.80729,-0.972 l -0.18372,-0.0521 0.17793,0.48302 c 0.16309,0.44274 0.16782,0.51161 0.0567,0.82593 -0.19894,0.56287 -0.74031,0.83864 -1.22187,0.62244 z m -11.86009,-1.1925 c -0.4968,-0.14906 -0.83351,-0.42859 -1.09504,-0.90912 -0.199,-0.36562 -0.22461,-0.49524 -0.19642,-0.99419 0.0253,-0.4484 0.083,-0.65016 0.26388,-0.9235 0.27757,-0.41945 0.76991,-0.76288 1.19181,-0.83134 l 0.3082,-0.05 v 1.86875 c 0,1.02781 -0.0286,1.88547 -0.0635,1.9059 -0.0349,0.0204 -0.21894,-0.009 -0.40893,-0.0665 z m 0.21843,-0.55986 c 0,-0.0502 -0.11137,-0.20255 -0.24749,-0.33866 -0.13612,-0.13612 -0.28852,-0.24749 -0.33867,-0.24749 -0.15239,0 -0.10194,0.3279 0.0782,0.508 0.1801,0.1801 0.508,0.23055 0.508,0.0781 z m 0,-0.7864 c 0,-0.18847 -0.33833,-0.56175 -0.50915,-0.56175 -0.27041,0 -0.27455,0.16066 -0.0109,0.42427 0.26592,0.26592 0.52009,0.33311 0.52009,0.13748 z m 0,-0.89847 c 0,-0.18808 -0.36818,-0.46936 -0.50428,-0.38525 -0.13177,0.0814 -0.1079,0.19446 0.0809,0.3833 0.21651,0.21651 0.42334,0.21746 0.42334,0.002 z m 0.56795,0.52553 c -0.0281,-1.0119 -0.0187,-1.87224 0.0208,-1.91188 0.11059,-0.11093 0.53817,0.0137 0.95602,0.27871 0.66029,0.41874 0.97005,1.30388 0.7425,2.12169 -0.16101,0.57863 -0.78734,1.14012 -1.44861,1.29863 l -0.21966,0.0527 z m 0.74823,1.0427 c 0.1143,-0.1143 0.20782,-0.2667 0.20782,-0.33866 0,-0.19621 -0.23484,-0.15771 -0.46952,0.077 -0.23468,0.23467 -0.27317,0.46951 -0.077,0.46951 0.072,0 0.22437,-0.0935 0.33867,-0.20782 z m 0,-0.762 c 0.22722,-0.22722 0.27482,-0.46951 0.0922,-0.46951 -0.19099,0 -0.56176,0.33934 -0.56176,0.51414 0,0.22554 0.2203,0.2046 0.46952,-0.0446 z m -0.0535,-0.86046 c 0.18216,-0.23158 0.16711,-0.37105 -0.04,-0.37105 -0.16004,0 -0.46067,0.30389 -0.46067,0.46567 0,0.20477 0.3115,0.14591 0.5007,-0.0946 z M 3.6853669,37.764457 c -1.281429,-0.20133 -2.37669,-0.70506 -3.09494503,-1.42344 -0.562493,-0.56258 -0.589058,-0.66275 -0.5904180041005,-2.22623 C -0.00149613,32.427377 0.43381287,30.228677 0.78223887,30.163507 c 0.132078,-0.0247 0.148166,0.054 0.148166,0.72494 0,3.34549 2.02889203,5.83622 4.43352503,5.44273 0.686508,-0.11234 1.154118,-0.35952 1.617674,-0.8551 1.103969,-1.18023 1.299415,-3.26752 0.443383,-4.73516 -0.177314,-0.304 -1.184746,-1.39135 -2.902402,-3.13266 -1.446952,-1.46688 -2.746855,-2.8385 -2.888675,-3.04805 -0.417004,-0.61616 -0.85747303,-1.5535 -1.06263303,-2.26133 -0.168073,-0.57987 -0.191077,-0.84917 -0.190148,-2.22601 9.2e-4,-1.36139 0.02678,-1.66603 0.197679,-2.32833 0.57153003,-2.21495 1.86057203,-3.62391 3.61126403,-3.9472 0.580375,-0.10718 1.830289,-0.0493 2.970026,0.13746 0.415419,0.0681 1.069633,0.12445 1.453808,0.12526 l 0.6985,10e-4 -0.0023,0.4445 c -0.0013,0.24447 -0.05738,1.30175 -0.124659,2.3495 -0.06728,1.04775 -0.123371,1.95262 -0.124659,2.01083 -0.0013,0.0582 -0.05716,0.10584 -0.124154,0.10584 -0.0819,0 -0.138092,-0.13177 -0.171502,-0.40217 -0.142476,-1.15313 -0.407437,-1.86932 -0.898467,-2.42858 -0.386675,-0.4404 -0.83119,-0.70476 -1.452816,-0.86401 -1.897175,-0.48603 -3.484378,0.96857 -3.477268,3.18676 0.0023,0.71586 0.178084,1.26483 0.602601,1.88185 0.145406,0.21134 1.449809,1.5603 2.898673,2.9977 2.627151,2.60635 3.163398,3.23146 3.554797,4.14382 0.8397391,1.95746 0.7297931,5.16518 -0.246451,7.19029 -0.774195,1.60599 -1.867995,2.54804 -3.439425,2.96226 -0.632612,0.16676 -1.952789,0.22937 -2.621372,0.12433 z m 74.6515821,-0.04 c -1.62459,-0.35292 -3.06183,-1.68365 -3.99357,-3.69762 -0.84747,-1.8318 -1.28013,-3.8104 -1.46228,-6.68702 -0.15297,-2.41584 0.0741,-5.35696 0.56106,-7.26696 0.75282,-2.95285 2.0643,-4.96959 3.79763,-5.83982 1.7945,-0.900957 4.47502,-0.53091 6.39555,0.8829 l 0.5224,0.38457 v 2.87884 c 0,1.82551 -0.0304,2.87885 -0.083,2.87885 -0.0457,0 -0.10084,-0.0857 -0.12259,-0.1905 -0.0217,-0.10478 -0.12055,-0.586 -0.21956,-1.06939 -0.49101,-2.39707 -1.35829,-3.90209 -2.60123,-4.51399 -0.48626,-0.23938 -0.65179,-0.27756 -1.20335,-0.27756 -0.83738,0 -1.416,0.2712 -2.05793,0.96456 -1.37078,1.4806 -2.06104,4.34681 -2.15279,8.93921 -0.10905,5.45849 0.64143,9.02124 2.22901,10.58164 1.23403,1.21291 3.02089,0.73013 3.92718,-1.06107 0.49955,-0.98733 0.51693,-1.14254 0.48926,-4.37055 -0.0237,-2.76843 -0.0356,-2.96571 -0.19368,-3.22719 -0.12253,-0.20265 -0.27241,-0.30883 -0.55033,-0.38987 -0.21709,-0.0633 -0.38194,-0.16235 -0.38194,-0.2295 0,-0.0978 0.41888,-0.12199 2.43417,-0.14059 2.30729,-0.0213 2.43416,-0.0144 2.43416,0.1319 0,0.11191 -0.097,0.17631 -0.35262,0.23413 -0.22961,0.0519 -0.4142,0.16309 -0.52916,0.31864 -0.1698,0.22974 -0.17817,0.36248 -0.21888,3.47133 l -0.0423,3.23246 -0.26598,0.50857 c -0.9786,1.87108 -2.81134,3.30145 -4.60235,3.5919 -0.70183,0.11382 -1.09778,0.10529 -1.75679,-0.0379 z m -37.60435,-0.0848 c -1.02005,-0.28648 -1.93888,-1.04547 -2.13452,-1.76319 -0.21895,-0.80325 0.0729,-4.26073 0.39564,-4.68632 0.10271,-0.13547 0.11628,-0.0995 0.11866,0.31493 0.007,1.22105 0.30822,2.65184 0.73587,3.49578 0.27899,0.55056 0.84051,1.14891 1.25649,1.33892 0.7058,0.32239 1.55983,0.12065 2.06088,-0.48682 0.55631,-0.67447 0.86728,-2.06709 0.70067,-3.13782 -0.14341,-0.92163 -0.54021,-1.58253 -2.3557,-3.92368 -0.92172,-1.18859 -1.79499,-2.38874 -1.94061,-2.667 -0.57815,-1.10479 -0.81254,-2.21312 -0.80531,-3.80793 0.0104,-2.30004 0.55208,-3.94753 1.60153,-4.8713 0.69628,-0.61289 1.48527,-0.70766 3.09358,-0.37161 0.31736,0.0663 0.76839,0.12058 1.00227,0.12058 h 0.42524 l -0.0469,0.3175 c -0.0258,0.17462 -0.0702,1.06045 -0.0987,1.9685 -0.0285,0.90805 -0.0704,1.71767 -0.0932,1.79916 -0.0867,0.30987 -0.17646,0.12586 -0.22704,-0.46566 -0.1672,-1.95523 -1.3707,-3.10689 -2.64286,-2.52903 -1.19164,0.54129 -1.66071,2.68174 -0.91944,4.1956 0.12669,0.25872 1.02382,1.47073 1.99363,2.69333 2.48333,3.13066 2.68577,3.56852 2.75933,5.96825 0.0614,2.00379 -0.13436,3.18182 -0.74245,4.46735 -0.63655,1.34567 -1.64394,2.06316 -2.98516,2.12613 -0.45651,0.0214 -0.85186,-0.0114 -1.15188,-0.0957 z m 11.50581,0.0718 c -0.41422,-0.0659 -1.2341,-0.39408 -1.651,-0.66096 -0.52703,-0.33738 -1.34873,-1.21787 -1.72132,-1.84448 -0.66987,-1.12658 -1.16541,-2.59762 -1.47564,-4.38051 -0.16032,-0.92139 -0.18427,-1.37605 -0.18507,-3.51367 -8.5e-4,-2.19757 0.0197,-2.57035 0.19514,-3.55097 0.472,-2.63763 1.16675,-4.2327 2.38255,-5.4701 1.02712,-1.04537 2.28959,-1.53635 3.60413,-1.40167 2.8315,0.2901 4.69889,3.04164 5.29233,7.79808 0.13163,1.05499 0.13315,4.23038 0.003,5.24933 -0.57808,4.50898 -2.24624,7.18744 -4.81797,7.73597 -0.43066,0.0919 -1.18007,0.10983 -1.62567,0.039 z m 1.4954,-1.38927 c 1.63709,-0.7925 2.56535,-4.03899 2.56769,-8.98021 0.002,-3.51228 -0.36044,-5.72279 -1.22756,-7.49378 -0.74215,-1.51579 -1.79034,-2.0582 -2.90448,-1.503 -1.19465,0.59532 -2.00811,2.55499 -2.40411,5.79164 -0.14057,1.14892 -0.13983,5.35065 10e-4,6.43467 0.41617,3.20029 1.22432,5.11963 2.40296,5.70697 0.54265,0.27041 1.06586,0.28503 1.56436,0.0437 z m 12.9806,-5.34851 -3.681,-6.7945 -0.0236,1.397 c -0.013,0.76835 -0.013,3.4544 0,5.969 0.0236,4.55936 0.0242,4.57298 0.21441,4.929 0.2092,0.39148 0.40334,0.532 0.73499,0.532 0.16079,0 0.21724,0.044 0.21724,0.16933 0,0.16516 -0.0565,0.16933 -2.29221,0.16933 -2.13732,0 -2.29031,-0.01 -2.26411,-0.14816 0.0177,-0.0934 0.12168,-0.1585 0.28137,-0.17612 0.34683,-0.0383 0.6034,-0.30105 0.76295,-0.78142 0.11991,-0.36101 0.13138,-1.39919 0.10764,-9.74567 -0.0146,-5.1379 -0.0588,-9.4083 -0.0982,-9.48979 -0.0509,-0.10541 -0.0367,-0.14817 0.0494,-0.14817 0.0734,0 1.56844,2.67467 3.79789,6.7945 l 3.67685,6.7945 0.0218,-5.75478 c 0.0185,-4.88651 0.003,-5.82007 -0.10404,-6.18754 -0.1613,-0.55482 -0.46058,-0.88468 -0.80268,-0.88468 -0.2023,0 -0.25805,-0.0369 -0.25805,-0.17072 0,-0.16748 0.0429,-0.17029 2.26484,-0.14816 1.91815,0.0191 2.26483,0.0414 2.26483,0.14607 0,0.0717 -0.11692,0.14745 -0.27863,0.18052 -0.38342,0.0784 -0.57982,0.27995 -0.73856,0.75787 -0.12122,0.36495 -0.13251,1.38759 -0.10933,9.89607 0.0142,5.21897 0.006,9.48904 -0.0185,9.48903 -0.0244,-10e-6 -1.70078,-3.05754 -3.72533,-6.79451 z m -54.523337,6.20183 c 0,-0.11469 0.05644,-0.16933 0.1749,-0.16933 0.288991,0 0.491471,-0.15552 0.692657,-0.532 l 0.190777,-0.357 0.02274,-8.63059 c 0.02016,-7.65239 0.0077,-8.6759 -0.110039,-9.03034 -0.165982,-0.49973 -0.471281,-0.83874 -0.755324,-0.83874 -0.159847,0 -0.21571,-0.0442 -0.21571,-0.17072 0,-0.16748 0.04287,-0.17029 2.264834,-0.14816 1.946718,0.0194 2.264833,0.0404 2.264833,0.14955 0,0.0752 -0.09375,0.13781 -0.229792,0.15349 -0.304631,0.0351 -0.62467,0.42963 -0.78412,0.96655 -0.194476,0.65488 -0.194476,16.83237 0,17.48724 0.156166,0.52587 0.492806,0.95072 0.753328,0.95072 0.233327,0 0.305351,0.0645 0.245692,0.21994 -0.03749,0.0977 -0.441196,0.11872 -2.280166,0.11872 -2.178164,0 -2.234609,-0.004 -2.23461,-0.16933 z m 5.772992,0.022 c 0.01601,-0.084 0.120361,-0.16162 0.239207,-0.17791 0.291526,-0.0399 0.500714,-0.24349 0.709927,-0.69078 0.176884,-0.37817 0.17838,-0.44323 0.201384,-8.76107 0.01595,-5.76721 -0.0054,-8.51764 -0.06842,-8.82128 -0.120774,-0.58177 -0.396124,-0.97836 -0.762022,-1.09757 -0.16137,-0.0526 -0.30572,-0.15734 -0.320775,-0.23283 -0.0247,-0.12385 0.196424,-0.13725 2.264833,-0.13725 2.235763,0 2.292208,0.004 2.292208,0.16934 0,0.12417 -0.05645,0.16933 -0.211667,0.16933 -0.240915,0 -0.472243,0.2031 -0.693997,0.60933 -0.143908,0.26362 -0.153973,0.78375 -0.175371,9.06384 l -0.0227,8.78416 1.123368,-0.002 c 1.32452,-0.002 1.60007,-0.0928 2.16983,-0.71322 0.57824,-0.62969 1.05643,-1.809 1.36651,-3.37009 0.0999,-0.50318 0.25773,-0.66403 0.24916,-0.254 -0.003,0.12806 -0.14647,1.43299 -0.31954,2.89984 l -0.31467,2.667 -3.877833,0.022 c -3.66271,0.0208 -3.876259,0.0138 -3.84943,-0.127 z m 9.144165,-8.5e-4 c 0.0159,-0.0833 0.12057,-0.16069 0.23904,-0.17676 0.29903,-0.0405 0.56348,-0.31557 0.73784,-0.76733 0.14039,-0.36374 0.1503,-0.95313 0.1503,-8.94075 0,-8.08142 -0.009,-8.57338 -0.15482,-8.95259 -0.17264,-0.44743 -0.48528,-0.74174 -0.78793,-0.74174 -0.14381,0 -0.20025,-0.0477 -0.20025,-0.16933 0,-0.16516 0.0564,-0.16934 2.286,-0.16934 2.22955,0 2.286,0.004 2.286,0.16934 0,0.11468 -0.0564,0.16933 -0.1749,0.16933 -0.31076,0 -0.51213,0.17348 -0.72029,0.62056 l -0.20383,0.43777 v 8.636 8.636 l 0.20383,0.43777 c 0.20816,0.44708 0.40953,0.62057 0.72029,0.62057 0.11845,0 0.1749,0.0546 0.1749,0.16933 0,0.16516 -0.0564,0.16933 -2.29221,0.16933 -2.13737,0 -2.2903,-0.01 -2.26397,-0.14816 z m 8.64762,0.0263 c -0.19445,-0.0608 -0.48426,-0.19134 -0.64401,-0.29007 -0.40416,-0.24979 -1.02442,-0.93163 -1.251,-1.3752 -0.24135,-0.47249 -2.87377,-7.48347 -2.87377,-7.65376 0,-0.0699 0.7858,-2.13668 1.74621,-4.59291 0.96041,-2.45622 1.7654,-4.62715 1.78885,-4.82429 0.0533,-0.44836 -0.10406,-0.85091 -0.34631,-0.8856 -0.0997,-0.0143 -0.19406,-0.0926 -0.20959,-0.17413 -0.0262,-0.13723 0.10039,-0.14817 1.71364,-0.14817 1.50775,0 1.74187,0.0174 1.74187,0.12966 0,0.13349 -0.0449,0.15828 -0.44663,0.24642 -0.35,0.0768 -0.89068,0.61013 -1.15858,1.14284 -0.13021,0.25891 -0.85004,1.8845 -1.59964,3.61242 l -1.36289,3.14167 1.85338,4.90166 c 1.01937,2.69592 1.92854,5.07312 2.0204,5.28267 0.26492,0.6044 0.6529,1.07485 0.98563,1.19517 0.19302,0.0698 0.301,0.16349 0.301,0.26117 0,0.13796 -0.0898,0.15179 -0.9525,0.14666 -0.52974,-0.003 -1.10943,-0.0547 -1.30606,-0.11621 z m -10.31444,-22.47831 c -0.90643,-0.21796 -1.463908,-1.15218 -1.544432,-2.588152 -0.05131,-0.915048 0.06542,-1.544495 0.416832,-2.2477525 0.4203,-0.841093 1.04371,-1.185522 1.91049,-1.05554 0.53721,0.08056 1.10139,0.636265 1.37663,1.3559595 0.25403,0.66421 0.2805,2.026461 0.0543,2.794 -0.3637,1.234025 -1.29091,1.963405 -2.21381,1.741485 z m 1.04487,-0.59805 c 0.43012,-0.43012 0.56457,-0.980675 0.55835,-2.286435 -0.007,-1.368382 -0.16797,-1.9094215 -0.71809,-2.4064205 -0.36854,-0.332958 -0.55604,-0.367986 -0.93123,-0.173967 -0.88932,0.459884 -1.07964,3.2057245 -0.30974,4.4687925 0.40584,0.66582 0.97203,0.82671 1.40071,0.39803 z m 8.77646,0.59805 c -0.91956,-0.22112 -1.46761,-1.15432 -1.54485,-2.630543 -0.0488,-0.933214 0.0991,-1.653943 0.47771,-2.3279015 0.59221,-1.054102 1.77174,-1.276828 2.63442,-0.497448 1.08887,0.9837275 1.07128,3.7578475 -0.0312,4.9281325 -0.43874,0.4657 -0.99677,0.65743 -1.53604,0.52776 z m 1.04487,-0.59805 c 0.43013,-0.43012 0.56457,-0.980675 0.55835,-2.286435 -0.007,-1.368382 -0.16797,-1.9094215 -0.71808,-2.4064205 -0.37858,-0.342017 -0.59852,-0.373801 -0.97942,-0.141537 -0.71011,0.433017 -0.99647,2.3147685 -0.57051,3.7491175 0.34949,1.176865 1.12548,1.669455 1.70966,1.085275 z m 2.77398,0.52873 c -0.0247,-0.0815 -0.25887,-1.289763 -0.52039,-2.685048 -0.26152,-1.395287 -0.51054,-2.6023815 -0.55338,-2.6824345 -0.0429,-0.08005 -0.15469,-0.169922 -0.24855,-0.199711 -0.34207,-0.108568 -0.0621,-0.203845 0.59472,-0.202401 0.65884,0.0014 0.93215,0.09472 0.59298,0.202372 -0.0938,0.02977 -0.17043,0.08014 -0.17026,0.111929 1.6e-4,0.03179 0.13351,0.8350045 0.29633,1.7849275 0.16282,0.949922 0.29603,1.765897 0.29603,1.813277 0,0.286565 0.14438,-0.225803 0.54196,-1.923364 0.24686,-1.0540145 0.47191,-1.9394695 0.50012,-1.9676775 0.18303,-0.183027 0.3103,0.172802 0.69013,1.9293945 0.22507,1.040914 0.43262,1.919637 0.46122,1.952717 0.0286,0.03308 0.20052,-0.744635 0.38204,-1.728256 l 0.33003,-1.7884045 -0.18457,-0.149456 c -0.24074,-0.194944 -0.15235,-0.238204 0.48053,-0.235177 0.55551,0.0027 0.72098,0.09201 0.44446,0.240005 -0.20839,0.111526 -0.22747,0.182984 -0.81463,3.0502035 -0.26217,1.280254 -0.5125,2.394674 -0.55629,2.476504 -0.11154,0.2084 -0.31573,0.18536 -0.36976,-0.0417 -0.0249,-0.10478 -0.23106,-1.00965 -0.45808,-2.010835 -0.22701,-1.001183 -0.43289,-1.763183 -0.45751,-1.693333 -0.0246,0.06985 -0.22387,0.90805 -0.44277,1.862666 -0.42309,1.845042 -0.48484,2.032002 -0.67115,2.032002 -0.0651,0 -0.13852,-0.0667 -0.16321,-0.14817 z m 17.55948,0.0689 c -0.91048,-0.18372 -1.45661,-0.86069 -1.69813,-2.104979 -0.20361,-1.048991 0.0462,-2.447725 0.55674,-3.1170545 0.45043,-0.59054 1.33731,-0.825099 2.28439,-0.60417 l 0.508,0.118502 0.0259,0.498124 c 0.0315,0.6048855 -0.0305,0.8861795 -0.19525,0.8861795 -0.0681,0 -0.14665,-0.104775 -0.1746,-0.232834 -0.12086,-0.5536385 -0.23634,-0.7212655 -0.61106,-0.8870215 -0.93692,-0.414445 -1.61124,0.277121 -1.76244,1.8075065 -0.15172,1.535619 0.57718,3.110787 1.5095,3.262077 0.47636,0.0773 0.57293,-0.0953 0.57293,-1.024193 0,-0.987191 -0.0602,-1.297687 -0.26408,-1.362402 -0.35567,-0.112886 -0.12042,-0.208467 0.51309,-0.208467 0.64307,0 0.9532,0.100889 0.59671,0.194115 -0.1576,0.04121 -0.16838,0.117396 -0.16838,1.189194 v 1.145163 l -0.24716,0.17599 c -0.18727,0.13335 -1.0801,0.39472 -1.14023,0.3338 -0.005,-0.005 -0.14296,-0.0366 -0.30595,-0.0695 z m -27.66483,-0.0684 c -0.38417,-0.0157 -0.6985,-0.0651 -0.6985,-0.10977 0,-0.0447 0.052,-0.0812 0.11549,-0.0812 0.0732,0 0.1352,-0.1438 0.16934,-0.39282 0.0671,-0.48975 0.0693,-4.4940885 0.003,-4.7428515 -0.0269,-0.10047 -0.12552,-0.20268 -0.21903,-0.227134 -0.35928,-0.09395 -0.0376,-0.21347 0.56822,-0.211095 0.62756,0.0025 0.87925,0.09269 0.55002,0.197178 -0.16585,0.05264 -0.17056,0.122547 -0.17056,2.5291635 0,1.812129 0.0272,2.502239 0.1016,2.576629 0.13019,0.13019 0.80058,0.1326 0.88058,0.003 0.0335,-0.0541 0.0849,-0.21584 0.1142,-0.35933 0.0326,-0.15938 0.11403,-0.27256 0.20933,-0.29091 0.14052,-0.0271 0.15198,0.0182 0.11562,0.45667 -0.0479,0.57728 -0.19363,0.72334 -0.69668,0.69811 -0.18901,-0.009 -0.65798,-0.0301 -1.04215,-0.0458 z m 2.87867,0 c -0.38418,-0.0157 -0.6985,-0.0651 -0.6985,-0.10977 0,-0.0447 0.0518,-0.0812 0.1152,-0.0812 0.17222,0 0.2219,-0.63495 0.22273,-2.846915 8.4e-4,-2.1776215 -0.0279,-2.4526775 -0.26235,-2.5139915 -0.0881,-0.02305 -0.16025,-0.08158 -0.16025,-0.130065 0,-0.05413 0.26164,-0.08644 0.67782,-0.08371 0.66159,0.0043 0.92885,0.0915 0.6003,0.195775 -0.13533,0.04295 -0.17431,0.164935 -0.22517,0.704595 -0.0894,0.9490325 0.0138,4.2351215 0.13778,4.3844815 0.12105,0.14586 0.80515,0.16277 0.89212,0.0221 0.0335,-0.0541 0.0849,-0.21584 0.11419,-0.35933 0.0328,-0.16056 0.11394,-0.27254 0.2109,-0.29122 0.14357,-0.0276 0.15302,0.0134 0.10659,0.46328 -0.06,0.58148 -0.19464,0.71661 -0.68921,0.69181 -0.18901,-0.009 -0.65798,-0.0301 -1.04215,-0.0458 z m 13.88533,-0.004 c -0.33761,-0.0137 -0.61383,-0.0613 -0.61383,-0.10583 0,-0.0445 0.0524,-0.081 0.11641,-0.081 0.064,0 0.14023,-0.11906 0.16934,-0.26458 0.0744,-0.37225 0.0637,-4.8381735 -0.0119,-4.9485925 -0.0342,-0.04996 -0.1313,-0.11637 -0.21574,-0.147569 -0.31305,-0.115663 -0.033,-0.221081 0.5789,-0.217887 0.62405,0.0033 0.87959,0.09715 0.54953,0.201908 -0.15806,0.05016 -0.17056,0.126132 -0.17056,1.0362045 0,0.540141 0.0148,0.966198 0.0329,0.946796 0.0181,-0.0194 0.26674,-0.416067 0.55251,-0.881474 0.41132,-0.6698675 0.50915,-0.8937105 0.46951,-1.0742095 l -0.0501,-0.228012 h 0.55417 c 0.56828,0 0.79948,0.100942 0.43863,0.191507 -0.20428,0.05127 -0.38454,0.292547 -1.22306,1.6370555 l -0.43416,0.696145 0.60188,0.997188 c 1.07434,1.77996 1.39072,2.15305 1.71896,2.0271 0.1168,-0.0448 0.13271,-0.38682 0.13271,-2.853477 V 8.8005545 l 0.18887,0.02705 c 0.14824,0.02123 0.44429,0.468762 1.37584,2.0797885 0.65282,1.129003 1.206,2.052966 1.22929,2.053253 0.0522,6.77e-4 0.0123,-3.3592505 -0.0429,-3.6090365 -0.0219,-0.09921 -0.11649,-0.200418 -0.21014,-0.224906 -0.0936,-0.02449 -0.17026,-0.08483 -0.17026,-0.134096 0,-0.0553 0.24253,-0.0883 0.63392,-0.08626 0.61715,0.0032 0.88417,0.0967 0.56531,0.197906 -0.13451,0.04269 -0.16599,0.172191 -0.21246,0.873929 -0.03,0.4530975 -0.0547,1.7096385 -0.055,2.7923135 -4.3e-4,1.888621 -0.007,1.968501 -0.16397,1.968501 -0.16748,0 -0.96119,-1.22398 -2.08634,-3.217335 l -0.5018,-0.889 -0.0261,1.354667 c -0.0143,0.745067 -0.002,1.594978 0.0284,1.888688 0.0486,0.4758 0.0788,0.54326 0.27721,0.6187 0.39904,0.15171 0.0632,0.20309 -1.04344,0.15962 l -1.07763,-0.0423 -0.22224,-0.28291 c -0.12224,-0.15559 -0.46037,-0.68871 -0.75142,-1.184699 l -0.52916,-0.901793 v 1.080962 c 0,1.07513 10e-4,1.0814 0.21166,1.16144 0.41898,0.1593 0.21786,0.2205 -0.61383,0.18679 z m -26.035,-0.15922 c 0.19045,-0.13285 0.1905,-0.13356 0.1905,-2.701915 0,-2.4823755 -0.0057,-2.5720845 -0.169333,-2.6596525 -0.321483,-0.172053 -0.167012,-0.24658 0.508,-0.245097 0.372533,8.47e-4 0.677333,0.02353 0.677333,0.05046 0,0.02693 -0.06667,0.09765 -0.148167,0.157149 -0.127254,0.09291 -0.148166,0.255554 -0.148166,1.1523335 v 1.044156 l 0.867833,0.02413 0.867833,0.02413 v -1.058317 c 0,-0.9716645 -0.01386,-1.0657365 -0.169333,-1.1489415 -0.321483,-0.172053 -0.167012,-0.24658 0.508,-0.245097 0.372533,8.47e-4 0.677333,0.02353 0.677333,0.05046 0,0.02693 -0.06668,0.09767 -0.148166,0.157185 -0.132341,0.09666 -0.151096,0.31922 -0.175595,2.0836675 -0.01509,1.0865 -0.0021,2.253929 0.02886,2.594299 0.05011,0.55093 0.07868,0.62737 0.260263,0.69641 0.112184,0.0426 0.203972,0.0975 0.203972,0.12198 0,0.0244 -0.352425,0.0424 -0.783167,0.04 -0.736652,-0.004 -0.771852,-0.0123 -0.592667,-0.13733 0.184008,-0.12836 0.1905,-0.17881 0.1905,-1.480185 V 11.68513 l -0.867833,0.02413 -0.867833,0.02413 -0.02668,0.804333 c -0.01467,0.442383 -0.0019,1.044644 0.02842,1.338364 0.04764,0.46162 0.08282,0.54455 0.259516,0.61173 0.112424,0.0427 0.204407,0.0977 0.204407,0.12215 0,0.0244 -0.352425,0.0424 -0.783166,0.04 -0.736652,-0.004 -0.771852,-0.0123 -0.592667,-0.13733 z m 33.37983,0.0571 c 0,-0.0466 0.0515,-0.0847 0.11445,-0.0847 0.1525,0 0.22306,-0.93763 0.22371,-2.972681 6e-4,-1.9078775 -0.0469,-2.3380825 -0.26593,-2.4076005 -0.32579,-0.103401 -0.0463,-0.201539 0.56481,-0.198348 0.62404,0.0033 0.87959,0.09715 0.54953,0.201907 -0.16614,0.05273 -0.17057,0.122196 -0.17057,2.6751915 v 2.621061 l 0.21167,0.0805 c 0.11642,0.0443 0.21167,0.10047 0.21167,0.12491 0,0.0244 -0.32385,0.0444 -0.71967,0.0444 -0.42333,0 -0.71967,-0.0349 -0.71967,-0.0847 z m 6.096,0 c 0,-0.0466 0.0531,-0.0847 0.11799,-0.0847 0.15474,0 0.26616,-2.335743 0.19185,-4.021665 -0.0468,-1.0619635 -0.0701,-1.1974245 -0.22338,-1.3014945 -0.29798,-0.202274 -0.18967,-0.256093 0.50621,-0.25153 0.64997,0.0043 0.81716,0.06936 0.55498,0.21608 -0.0952,0.05328 -0.12558,0.303139 -0.13693,1.1260405 l -0.0146,1.057571 h 0.86685 0.86685 l -0.0126,-1.016 c -0.0113,-0.9074035 -0.0305,-1.0284175 -0.17958,-1.1321615 -0.29193,-0.20308 -0.18438,-0.256086 0.51035,-0.25153 0.65668,0.0043 0.81733,0.06927 0.54636,0.220911 -0.1752,0.09804 -0.25412,1.9124295 -0.16775,3.8565635 0.0621,1.397325 0.067,1.425215 0.26566,1.500735 0.11132,0.0423 0.2024,0.0969 0.2024,0.12139 0,0.0244 -0.32385,0.0444 -0.71967,0.0444 -0.42333,0 -0.71966,-0.0349 -0.71966,-0.0847 0,-0.0466 0.0571,-0.0847 0.127,-0.0847 0.10742,0 0.127,-0.20226 0.127,-1.312332 0,-0.721783 0,-1.340908 0,-1.375833 0,-0.03493 -0.381,-0.0635 -0.84667,-0.0635 -0.46567,0 -0.84667,0.02857 -0.84667,0.0635 0,0.03493 0,0.635943 0,1.335595 v 1.2721 l 0.21167,0.0805 c 0.11642,0.0443 0.21167,0.10047 0.21167,0.12491 0,0.0244 -0.32385,0.0444 -0.71967,0.0444 -0.42333,0 -0.71967,-0.0349 -0.71967,-0.0847 z m 5.22817,-0.0571 c 0.19035,-0.13279 0.1905,-0.13484 0.1905,-2.667201 V 9.3110935 l -0.39349,0.02581 c -0.27295,0.0179 -0.41561,0.0712 -0.46567,0.173972 -0.0397,0.08149 -0.10347,0.212574 -0.14172,0.291294 -0.0383,0.07872 -0.12045,0.160093 -0.18265,0.180828 -0.0903,0.030111 -0.10231,-0.07784 -0.0595,-0.536178 0.0295,-0.315633 0.0691,-0.589398 0.0881,-0.608365 0.019,-0.01897 0.29502,0.01088 0.61344,0.06633 0.36093,0.06285 0.93856,0.08155 1.5339,0.04964 l 0.95496,-0.05118 v 0.547228 c 0,0.490784 -0.0175,0.547228 -0.16933,0.547228 -0.12313,0 -0.16933,-0.05644 -0.16933,-0.206866 0,-0.261273 -0.29073,-0.470467 -0.65384,-0.470467 h -0.2775 v 2.3651555 c 0,2.350014 0.0464,2.799514 0.28925,2.799514 0.0683,0 0.14764,0.0381 0.17642,0.0847 0.0335,0.0542 -0.23089,0.0831 -0.73584,0.0802 -0.74119,-0.004 -0.77681,-0.0124 -0.59766,-0.13732 z M 16.167199,9.8069845 c -0.702173,-0.354085 -0.970788,-1.25161 -0.64855,-2.167006 0.128151,-0.364042 0.127594,-0.3673 -0.05387,-0.315527 -0.879083,0.250812 -1.505278,0.207691 -2.107289,-0.14511 -0.606891,-0.355663 -0.845372,-1.076523 -0.356142,-1.076523 0.10971,0 0.395607,0.07731 0.635327,0.171797 0.598398,0.235866 1.366939,0.330079 1.845959,0.226288 l 0.391456,-0.08482 -0.254,-0.08404 c -1.070411,-0.35416 -1.417521,-1.744568 -0.621226,-2.488422 0.546014,-0.510054 1.592617,-0.46365 1.978823,0.08774 0.294022,0.419776 0.08829,1.110623 -0.368289,1.23669 -0.373669,0.103175 -0.462201,0.04793 -0.397229,-0.247891 0.03786,-0.172384 0.01478,-0.249358 -0.08644,-0.288198 -0.410338,-0.157461 -0.864689,0.315244 -0.760212,0.790924 0.07223,0.328875 0.305734,0.516541 0.710205,0.570791 0.296091,0.03972 0.49928,-0.02929 1.520041,-0.516207 0.648044,-0.309127 1.506852,-0.646993 1.90846,-0.750813 0.401609,-0.10382 0.730198,-0.217655 0.730198,-0.252968 0,-0.03531 -0.27827,-0.0642 -0.618377,-0.0642 -0.494207,0 -0.705961,-0.04365 -1.054561,-0.21736 -0.649173,-0.323497 -1.131716,-0.931408 -0.868469,-1.094104 0.04579,-0.0283 0.379169,0.04157 0.740834,0.155274 0.697108,0.219162 1.330608,0.31262 3.578573,0.527933 0.76835,0.07359 1.87325,0.2268 2.455338,0.340458 1.02045,0.199252 3.61149,0.90225 3.91583,1.062438 0.19029,0.100152 0.19601,-0.0369 0.008,-0.192772 -0.23209,-0.192473 -0.39389,-0.660185 -0.27708,-0.800931 0.23024,-0.277422 0.50768,-0.138263 1.25468,0.629318 0.78171,0.803247 1.31877,1.154885 2.3116,1.513529 0.52172,0.188462 0.76441,0.22426 1.54991,0.228622 0.5321,0.003 1.12776,-0.04492 1.38955,-0.111687 0.41705,-0.106356 0.46779,-0.103775 0.56467,0.02871 0.0995,0.136129 0.11787,0.134144 0.28261,-0.0306 0.34752,-0.347513 0.14159,-0.745815 -0.33183,-0.641835 -0.46822,0.102839 -0.68031,-0.283486 -0.32978,-0.600711 0.11945,-0.108103 0.30335,-0.161289 0.55767,-0.161289 0.31077,0 0.41642,0.04299 0.58377,0.237555 0.22298,0.25923 0.27159,0.706251 0.10969,1.008764 -0.093,0.173783 -0.0842,0.175885 0.50501,0.12112 0.67915,-0.06312 1.55073,-0.352981 2.0451,-0.680138 0.59632,-0.394629 0.77407,-1.050929 0.43375,-1.60157 -0.288,-0.465999 -0.93961,-0.635839 -1.34637,-0.35093 -0.23321,0.163343 -0.23925,0.373091 -0.0188,0.653302 0.20145,0.256097 0.21669,0.40023 0.0423,0.40023 -0.0699,0 -0.127,0.03343 -0.127,0.0743 0,0.04086 0.0571,0.12173 0.127,0.1797 0.46827,0.388623 -0.35361,0.593476 -0.85296,0.212602 -0.53383,-0.40717 -0.6118,-1.351308 -0.15154,-1.83499 0.30839,-0.324093 0.44757,-0.397676 0.91863,-0.485678 0.47805,-0.08931 1.11215,0.02284 1.42359,0.251778 0.13037,0.09584 0.2765,0.161106 0.32471,0.145034 0.13592,-0.0453 -0.32854,-0.466313 -0.58561,-0.530833 -0.30138,-0.07564 -0.44182,-0.198958 -0.44182,-0.387949 0,-0.206207 0.12176,-0.269249 0.50967,-0.263895 1.09565,0.01512 1.77226,1.339642 1.26207,2.470598 -0.0945,0.20955 -0.34308,0.555523 -0.55233,0.76883 l -0.38046,0.387829 0.46786,0.104704 c 0.5489,0.122837 0.80986,0.389724 0.80986,0.828237 0,0.349279 -0.31618,0.7044 -0.62717,0.7044 -0.30054,0 -0.63108,-0.168269 -0.689,-0.350758 -0.074,-0.233023 0.0242,-0.326575 0.3425,-0.326575 0.36178,0 0.43536,-0.114978 0.21476,-0.335579 -0.23484,-0.234837 -0.36972,-0.22231 -1.73575,0.161205 -0.65359,0.183495 -1.49314,0.378587 -1.86567,0.433539 -1.61627,0.238412 -4.15814,0.0358 -6.39084,-0.509403 -1.59431,-0.389315 -2.4005,-0.45658 -3.59257,-0.29975 -1.03143,0.135696 -1.22564,0.106537 -1.12021,-0.168194 0.0666,-0.173556 0.82595,-0.517282 1.32462,-0.599601 0.37743,-0.0623 0.37862,-0.06356 0.127,-0.133639 -0.43363,-0.120776 -1.51575,-0.182389 -2.10155,-0.119655 -0.682766,0.07312 -1.102828,0.321256 -1.143738,0.675625 -0.03378,0.29257 0.09016,0.38443 0.520988,0.386155 0.254614,10e-4 0.31787,0.03101 0.29634,0.140491 -0.07892,0.401303 -0.989577,0.676082 -1.38404,0.41762 -0.254273,-0.166606 -0.405624,-0.508908 -0.330155,-0.74669 0.09217,-0.290411 0.627572,-0.812692 0.938193,-0.915207 0.571478,-0.188604 0.186425,-0.273782 -1.044654,-0.231089 -0.979494,0.03397 -1.280374,0.07793 -1.847392,0.269912 -0.841281,0.284845 -1.278065,0.56532 -1.453593,0.933405 -0.182992,0.383739 -0.09566,0.697243 0.231716,0.831818 0.223026,0.09168 0.242053,0.123823 0.146438,0.247389 -0.20493,0.264834 -0.927925,0.232981 -1.214409,-0.0535 -0.258533,-0.258532 -0.271818,-0.648949 -0.03699,-1.087086 l 0.170829,-0.31873 -0.343977,0.175484 c -0.673657,0.343674 -1.352348,1.131671 -1.352348,1.570148 0,0.353244 0.270356,0.700853 0.683238,0.87847 0.441994,0.190141 0.480833,0.242859 0.311596,0.42296 -0.108497,0.11546 -0.08419,0.113829 0.804333,-0.054 0.554315,-0.104702 -0.02399,0.712635 -0.740217,1.046163 -0.533652,0.2485095 -0.920349,0.2508765 -1.400843,0.0086 z m 52.41189,0.01405 c -0.20955,-0.095 -0.47034,-0.256089 -0.57954,-0.357974 -0.23459,-0.218877 -0.4706,-0.644989 -0.39764,-0.717945 0.0282,-0.02821 0.22207,-0.0056 0.43079,0.0502 0.55752,0.149116 0.65615,0.137246 0.54744,-0.06589 -0.0782,-0.14615 -0.0504,-0.183747 0.21902,-0.296333 0.16974,-0.07092 0.34262,-0.128946 0.38419,-0.128946 0.1185,0 0.41108,-0.529214 0.41143,-0.744207 8.4e-4,-0.498453 -0.60003,-1.24019 -1.29031,-1.592886 l -0.40162,-0.205207 0.16847,0.276316 c 0.22126,0.362887 0.22423,0.919856 0.006,1.117381 -0.0897,0.0812 -0.30792,0.180296 -0.48487,0.220205 -0.52985,0.119502 -1.05214,-0.246627 -0.59808,-0.419262 0.38586,-0.146702 0.42473,-0.625329 0.0837,-1.030614 -0.29042,-0.345148 -1.06566,-0.700597 -1.90708,-0.874396 -0.67035,-0.138465 -2.47634,-0.186077 -2.5498,-0.06722 -0.0227,0.03673 0.14638,0.152859 0.37572,0.258073 0.45159,0.20717 0.84089,0.676455 0.84089,1.013651 0,0.109189 -0.11612,0.314645 -0.25804,0.456568 -0.23134,0.231337 -0.29806,0.253533 -0.64467,0.214464 -0.41312,-0.04656 -0.81551,-0.28775 -0.86033,-0.515671 -0.0222,-0.112721 0.0457,-0.139194 0.35685,-0.139194 0.45498,0 0.61248,-0.178851 0.44802,-0.508727 -0.21218,-0.425584 -0.59766,-0.549563 -1.70883,-0.549586 -0.5588,-1.1e-5 -1.1684,0.0331 -1.35467,0.07358 l -0.33866,0.0736 0.58397,0.162352 c 0.67198,0.186818 1.06703,0.434829 1.06703,0.669882 0,0.19578 0.0341,0.194835 -1.18534,0.03289 -1.14613,-0.152216 -1.87845,-0.09 -3.55537,0.302035 -2.21891,0.518746 -4.03245,0.708416 -5.58231,0.583831 -1.04671,-0.08414 -1.75116,-0.223939 -2.92732,-0.580938 -1.01918,-0.309351 -1.35404,-0.328057 -1.4852,-0.08297 -0.14552,0.271901 -0.0414,0.421173 0.27624,0.396199 0.22936,-0.01803 0.28212,0.0104 0.30399,0.163797 0.0192,0.134928 -0.0432,0.221626 -0.22857,0.3175 -0.36436,0.188417 -0.6631,0.163278 -0.9023,-0.07593 -0.46347,-0.463463 -0.14255,-1.114722 0.65394,-1.327104 l 0.3961,-0.105618 -0.41014,-0.448753 c -0.87343,-0.955676 -0.89355,-2.221001 -0.0456,-2.867771 0.55684,-0.42472 1.35887,-0.435755 1.29924,-0.01788 -0.0186,0.130414 -0.15094,0.24817 -0.42462,0.377865 -0.21867,0.103626 -0.43909,0.26596 -0.48981,0.360743 -0.11636,0.217421 -0.0493,0.217838 0.25438,0.0016 0.5119,-0.364505 1.48702,-0.360333 2.08448,0.0089 0.41933,0.259159 0.56402,0.59414 0.51993,1.203678 -0.0328,0.453775 -0.069,0.536363 -0.34661,0.790759 -0.30362,0.278239 -0.61867,0.35618 -0.94053,0.232671 -0.18515,-0.07105 -0.16763,-0.264792 0.0354,-0.39159 0.19832,-0.123855 0.22064,-0.234352 0.0473,-0.234352 -0.23162,0 -0.23442,-0.183865 -0.006,-0.421842 0.2837,-0.296113 0.25252,-0.494582 -0.11103,-0.706907 -0.24254,-0.141651 -0.32588,-0.150875 -0.6057,-0.06704 -0.46822,0.140283 -0.84817,0.6033 -0.84817,1.033605 0,0.858622 0.80584,1.468817 2.34999,1.779444 1.03459,0.208121 1.10629,0.208667 0.9238,0.007 -0.34694,-0.383366 -0.23592,-1.103795 0.20526,-1.331937 0.58693,-0.30351 1.25968,0.08238 1.05834,0.607066 -0.0421,0.109792 -0.12332,0.126521 -0.3996,0.08234 -0.55907,-0.0894 -0.76113,0.213447 -0.39935,0.598543 0.16931,0.180215 0.19008,0.183765 0.28842,0.04928 0.0941,-0.128683 0.15028,-0.133077 0.50124,-0.03921 0.2174,0.05814 0.72579,0.128208 1.12975,0.155697 0.91901,0.06253 1.64118,-0.09478 2.63948,-0.574959 0.60074,-0.288956 0.84937,-0.477283 1.50454,-1.139631 0.80349,-0.812301 1.05887,-0.944316 1.2894,-0.666547 0.12667,0.152631 -0.004,0.53553 -0.26168,0.769078 -0.29256,0.264763 -0.17085,0.26951 0.57924,0.02259 1.89715,-0.624514 4.096,-1.067143 6.24417,-1.256945 1.74072,-0.153804 2.41062,-0.256323 3.10196,-0.474716 0.36768,-0.116152 0.70598,-0.188029 0.75178,-0.159727 0.17426,0.107701 0.0705,0.371904 -0.26498,0.675035 -0.52056,0.470295 -0.94527,0.632396 -1.6626,0.634569 -0.35153,0.0011 -0.61383,0.03804 -0.61383,0.08653 0,0.04657 0.0742,0.08467 0.16496,0.08467 0.34764,0 1.61225,0.461039 2.57808,0.939889 1.19792,0.593922 1.53407,0.63803 1.92014,0.251958 0.36611,-0.36611 0.29142,-0.945622 -0.14318,-1.110854 -0.35512,-0.13502 -0.54339,-0.03186 -0.51907,0.284409 0.0194,0.252303 0.004,0.268048 -0.23326,0.245431 -0.50131,-0.0477 -0.77667,-0.630597 -0.54162,-1.146492 0.12998,-0.285265 0.66442,-0.565007 1.07944,-0.565007 0.92237,0 1.51913,0.814503 1.3311,1.816781 -0.0737,0.392609 -0.483,0.855133 -0.86978,0.982783 -0.26773,0.08836 -0.28598,0.111064 -0.15031,0.186989 0.28287,0.1583 1.24836,0.0801 1.89618,-0.153579 0.6872,-0.247889 0.9695,-0.246943 1.00296,0.0034 0.0391,0.292602 -0.28996,0.702112 -0.75257,0.936533 -0.48733,0.246951 -1.34333,0.308007 -1.80064,0.128434 -0.13452,-0.05282 -0.2606,-0.08002 -0.28018,-0.06044 -0.0196,0.01958 0.0276,0.252929 0.10479,0.51855 0.25653,0.882408 -0.01,1.610387 -0.7205,1.969419 -0.4651,0.2349655 -0.86088,0.2390635 -1.35721,0.01405 z m -26.03901,-2.186926 c -1.27518,-0.731432 -1.85724,-2.253794 -1.65774,-4.335738 0.0519,-0.541261 0.17513,-1.246111 0.27392,-1.566333 0.2087,-0.676521 0.59412,-1.47369998 0.79185,-1.63779898 0.2093,-0.173708 0.31376,-0.0085 0.21417,0.338766 -0.12998,0.453195 -0.10203,2.09196498 0.0455,2.66752298 0.21738,0.848112 0.62368,1.236184 1.05872,1.011215 0.55504,-0.287024 0.80212,-1.133728 0.72718,-2.492009 -0.0297,-0.537855 -0.0773,-1.12447198 -0.10581,-1.30359298 -0.15416,-0.968138 0.80257,0.487378 1.10082,1.67472998 0.61733,2.457591 0.11049,4.594888 -1.31542,5.547079 -0.2824,0.188576 -0.55674,0.342509 -0.60964,0.342072 -0.0529,-4.23e-4 -0.28849,-0.111098 -0.52353,-0.245913 z m 0.016,-0.64293 c 0.1697,-0.442227 -0.29336,-1.174896 -0.71208,-1.126663 -0.20865,0.02404 -0.23023,0.05798 -0.22121,0.347953 0.0105,0.336894 0.26167,0.692799 0.58267,0.825573 0.24631,0.101883 0.2961,0.09523 0.35062,-0.04686 z m 1.54628,-0.09021 c 0.25511,-0.214663 0.49061,-0.803233 0.38789,-0.969439 -0.0997,-0.16126 -0.52399,-0.08476 -0.74264,0.133891 -0.21455,0.214549 -0.37937,0.795249 -0.27407,0.965622 0.0935,0.151348 0.35984,0.09626 0.62882,-0.130074 z" id="path61"/>
</svg>
